<?xml version="1.0" encoding="UTF-8"?>
<svg xmlns="http://www.w3.org/2000/svg" xmlns:xlink="http://www.w3.org/1999/xlink" width="100px" height="100px" viewBox="0 0 100 100" version="1.1">
<g id="surface1">
<path style=" stroke:none;fill-rule:nonzero;fill:rgb(98.431373%,72.941178%,13.333334%);fill-opacity:1;" d="M 38.769531 47.234375 C 38.769531 55.527344 45.488281 62.246094 53.78125 62.246094 C 62.070312 62.246094 68.789062 55.527344 68.789062 47.234375 C 68.789062 38.945312 62.070312 32.226562 53.78125 32.226562 C 45.488281 32.226562 38.769531 38.945312 38.769531 47.234375 Z M 38.769531 47.234375 "/>
<path style=" stroke:none;fill-rule:nonzero;fill:rgb(100%,100%,100%);fill-opacity:1;" d="M 49.609375 53.242188 C 46.375 53.242188 43.507812 54.796875 41.640625 57.226562 C 40.457031 55.605469 38.585938 54.539062 36.464844 54.539062 C 33.261719 54.539062 30.605469 56.953125 30.085938 60.109375 L 27.609375 60.109375 C 23.828125 60.109375 20.761719 63.273438 20.761719 67.179688 C 20.761719 71.085938 23.828125 74.25 27.609375 74.25 L 49.609375 74.25 C 55.226562 74.25 59.785156 69.539062 59.785156 63.738281 C 59.785156 57.9375 55.226562 53.242188 49.609375 53.242188 Z M 49.609375 53.242188 "/>
<path style=" stroke:none;fill-rule:nonzero;fill:rgb(12.941177%,12.156863%,11.764706%);fill-opacity:1;" d="M 68.554688 33.953125 C 68.9375 33.953125 69.328125 33.808594 69.617188 33.515625 L 73.9375 29.199219 C 74.523438 28.613281 74.523438 27.664062 73.9375 27.078125 C 73.351562 26.492188 72.402344 26.492188 71.816406 27.078125 L 67.5 31.398438 C 66.914062 31.984375 66.914062 32.929688 67.5 33.515625 C 67.792969 33.808594 68.171875 33.953125 68.554688 33.953125 Z M 69.617188 60.957031 C 69.03125 60.371094 68.085938 60.371094 67.5 60.957031 C 66.914062 61.542969 66.914062 62.492188 67.5 63.078125 L 71.816406 67.394531 C 72.109375 67.6875 72.492188 67.832031 72.882812 67.832031 C 73.261719 67.832031 73.652344 67.6875 73.945312 67.394531 C 74.53125 66.808594 74.53125 65.859375 73.945312 65.273438 Z M 37.929688 33.515625 C 38.222656 33.808594 38.601562 33.953125 38.992188 33.953125 C 39.375 33.953125 39.765625 33.808594 40.058594 33.515625 C 40.644531 32.929688 40.644531 31.984375 40.058594 31.398438 L 35.742188 27.078125 C 35.15625 26.492188 34.210938 26.492188 33.625 27.078125 C 33.039062 27.664062 33.039062 28.613281 33.625 29.199219 Z M 53.78125 27.832031 C 54.609375 27.832031 55.28125 27.160156 55.28125 26.328125 L 55.28125 20.214844 C 55.28125 19.382812 54.609375 18.710938 53.78125 18.710938 C 52.949219 18.710938 52.277344 19.382812 52.277344 20.214844 L 52.277344 26.328125 C 52.277344 27.160156 52.949219 27.832031 53.78125 27.832031 Z M 26.769531 48.742188 L 32.882812 48.742188 C 33.710938 48.742188 34.382812 48.066406 34.382812 47.238281 C 34.382812 46.40625 33.710938 45.734375 32.882812 45.734375 L 26.769531 45.734375 C 25.9375 45.734375 25.265625 46.40625 25.265625 47.238281 C 25.265625 48.066406 25.9375 48.742188 26.769531 48.742188 Z M 80.789062 45.742188 L 74.679688 45.742188 C 73.847656 45.742188 73.171875 46.414062 73.171875 47.246094 C 73.171875 48.074219 73.847656 48.75 74.679688 48.75 L 80.789062 48.75 C 81.621094 48.75 82.296875 48.074219 82.296875 47.246094 C 82.296875 46.40625 81.621094 45.742188 80.789062 45.742188 Z M 80.789062 45.742188 "/>
<path style=" stroke:none;fill-rule:nonzero;fill:rgb(12.941177%,12.156863%,11.764706%);fill-opacity:1;" d="M 70.28125 47.234375 C 70.28125 38.132812 62.882812 30.734375 53.78125 30.734375 C 44.679688 30.734375 37.277344 38.132812 37.277344 47.234375 C 37.277344 49.375 37.6875 51.414062 38.429688 53.292969 C 37.792969 53.125 37.140625 53.039062 36.476562 53.039062 C 33 53.039062 29.992188 55.3125 28.925781 58.601562 L 27.628906 58.601562 C 23.027344 58.601562 19.277344 62.453125 19.277344 67.179688 C 19.277344 71.90625 23.027344 75.75 27.628906 75.75 L 49.609375 75.75 C 56.046875 75.75 61.289062 70.359375 61.289062 63.75 C 61.289062 63.152344 61.230469 62.566406 61.152344 62 C 66.554688 59.289062 70.28125 53.691406 70.28125 47.234375 Z M 49.609375 72.753906 L 27.609375 72.753906 C 24.65625 72.753906 22.253906 70.253906 22.253906 67.1875 C 22.253906 64.109375 24.65625 61.621094 27.609375 61.621094 L 30.085938 61.621094 C 30.820312 61.621094 31.453125 61.085938 31.570312 60.359375 C 31.980469 57.859375 34.03125 56.054688 36.464844 56.054688 C 38.027344 56.054688 39.472656 56.808594 40.429688 58.117188 C 40.703125 58.496094 41.152344 58.730469 41.621094 58.730469 C 42.101562 58.742188 42.539062 58.515625 42.832031 58.144531 C 44.492188 55.984375 46.960938 54.746094 49.609375 54.746094 C 54.394531 54.746094 58.28125 58.789062 58.28125 63.75 C 58.28125 68.710938 54.382812 72.753906 49.609375 72.753906 Z M 60.34375 59.03125 C 58.554688 54.746094 54.414062 51.738281 49.609375 51.738281 C 46.921875 51.738281 44.382812 52.675781 42.335938 54.363281 C 41.035156 52.292969 40.273438 49.851562 40.273438 47.234375 C 40.273438 39.785156 46.328125 33.730469 53.78125 33.730469 C 61.230469 33.730469 67.285156 39.785156 67.285156 47.234375 C 67.285156 52.304688 64.472656 56.71875 60.34375 59.03125 Z M 60.34375 59.03125 "/>
</g>
</svg>
